<svg data-v-0dd9719b="" version="1.0" xmlns="http://www.w3.org/2000/svg" xmlns:xlink="http://www.w3.org/1999/xlink" width="100%" height="100%" viewBox="0 0 340.000000 250.000000" preserveAspectRatio="xMidYMid meet" color-interpolation-filters="sRGB" style="margin: auto;"> <rect data-v-0dd9719b="" x="0" y="0" width="100%" height="100%" fill="#ffffff" fill-opacity="1" class="background"></rect> <rect data-v-0dd9719b="" x="0" y="0" width="100%" height="100%" fill="url(#watermark)" fill-opacity="1" class="watermarklayer"></rect> <g data-v-0dd9719b="" class="iconmbgsvg" transform="translate(76.78750610351562,84.53486633300781)"><g fill="#343c3e" hollow-target="textRect"><g transform="translate(3.9249954223632812,0)" mask="url(#d2dcefb2-98ce-4bab-a5f9-d309b21211a5)"><g><rect fill="#343c3e" fill-opacity="0" stroke-width="2" x="0" y="0" width="182.5" height="20.396781667260875" class="image-rect"></rect> <svg filter="url(#colors1224300616)" x="0" y="0" width="182.5" height="20.396781667260875" filtersec="colorsf3493982263" class="image-svg-svg primary" style="overflow: visible;"><svg xmlns="http://www.w3.org/2000/svg" viewBox="0 -0.00013400218449532986 334.19000244140625 37.350135803222656"><g><path d="M334.19 22.08v10.45h-2.73c-45.86.08-91.72.26-137.58.09-5.12 0-10.25-1.91-15.33-3.11-26-6.14-52-12.37-78.08-18.48a10.61 10.61 0 0 0-5.07.14Q49 23.88 2.62 36.72c-.79.22-1.6.38-2.62.63V26.41c4.72-1.3 9.58-2.65 14.45-4Q55.22 11.33 96 .27A8.25 8.25 0 0 1 99.9.2q45.1 10.68 90.19 21.44a20.51 20.51 0 0 0 4.7.42h136.08z"></path></g></svg></svg> <defs><filter id="colors1224300616"><feColorMatrix type="matrix" values="0 0 0 0 0.9375  0 0 0 0 0.59375  0 0 0 0 0.09765625  0 0 0 1 0" class="icon-fecolormatrix"></feColorMatrix></filter> <filter id="colorsf3493982263"><feColorMatrix type="matrix" values="0 0 0 0 0.99609375  0 0 0 0 0.99609375  0 0 0 0 0.99609375  0 0 0 1 0" class="icon-fecolormatrix"></feColorMatrix></filter> <filter id="colorsb8640772826"><feColorMatrix type="matrix" values="0 0 0 0 0  0 0 0 0 0  0 0 0 0 0  0 0 0 1 0" class="icon-fecolormatrix"></feColorMatrix></filter></defs></g></g> <g transform="translate(0,27.466514587402344)"><g data-gra="path-name" fill-rule="" class="tp-name" transform="translate(0,0)" fill="url(#9ff30b6a-15ec-435a-b2e6-9ca89db6f62f)"><g transform="scale(1)"><g><path d="M42.2 0.4L31.25 0.4 34-18.9 29.9-18.9 25.3 0.4 17.4 0.4 22.85-23.55 42.05-23.55 39.5-5.4 41.25-5.4 43.3-7.3 42.2 0.4ZM5.25 0.45L8.8-24.55 4-24.55 4.65-29.3 9.45-29.3 10.15-34.1 8.95-35.55 17.65-35.55 16.75-29.3 21-29.3 20.35-24.55 16.1-24.55 12.55 0.45 5.25 0.45ZM22.45-31.3L29.8-31.3 30.15-33.6 28.55-35.5 39.35-35.5 38.7-31.3 45.2-31.3 44.5-26.45 21.75-26.45 22.45-31.3ZM4.2-0.55L0.8-0.55 4.6-23.25 8.05-23.25 4.2-0.55ZM18.1-4.2L14.65-4.2 16.4-23.25 19.8-23.25 18.1-4.2ZM55.3-35.5L65.35-35.5 56.1 0.4 48.1 0.4 57.1-33.75 55.3-35.5ZM82-35.5L91-35.5 85.9 0.4 78.8 0.4 83.6-33.6 82-35.5ZM68.55-33.7L77.75-33.7 73.25-1.35 65.7-1.35 69.95-31.75 68.55-33.7ZM67.95-27L66.1-13.3 61.95-13.3 63.8-27 67.95-27ZM81.35-27L80-13.3 75.9-13.3 77.35-27 81.35-27ZM47-13.25L50.6-27 54.5-27 51-13.25 47-13.25ZM122.35-35.55L118.25-27.95 136.45-27.95 132.95-2.85Q132.7-1.4 131.57-0.48 130.45 0.45 129.05 0.45L129.05 0.45 119.15 0.45 123.65-4.2 126.3-23.2 115.7-23.2 103 0.45 93.5 0.45 106.2-23.2 95.9-23.2 96.55-27.95 108.75-27.95 112.1-34.2 110.95-35.55 122.35-35.55ZM155.35-12.6L163.45-12.6 163.75-14.7 155.7-14.7 158.5-34.65 183.15-34.65 180.35-14.7 172.25-14.7 171.95-12.6 180-12.6 179.35-7.85 171.25-7.85 170.9-5.2 180-5.2 179.35-0.45 152.7-0.45 153.35-5.2 162.4-5.2 162.75-7.85 154.7-7.85 155.35-12.6ZM142.3-33.65L156.4-33.65 151.75-0.6 138.85-0.6 143.35-32.45 142.3-33.65ZM145-4.85L146.8-4.85 150.25-29.4 148.45-29.4 145-4.85ZM162.35-19.45L165-19.45 165.4-22.3 162.75-22.3 162.35-19.45ZM163.85-29.9L163.4-27.05 166.1-27.05 166.5-29.9 163.85-29.9ZM176.5-29.9L173.85-29.9 173.45-27.05 176.1-27.05 176.5-29.9ZM172.35-19.45L175-19.45 175.4-22.3 172.75-22.3 172.35-19.45Z" transform="translate(-0.800000011920929, 35.54999923706055)"></path></g> <!----> <!----> <!----> <!----> <!----> <!----> <!----></g></g> <g data-gra="path-slogan" fill-rule="" class="tp-slogan" fill="#FF5857" transform="translate(51.78999328613281,46.000003814697266)"><!----> <!----> <g transform="scale(1, 1)"><g transform="scale(1)"><path d="M1.72-4.22L5.47-4.22L5.47-7.15L6.45-7.15L6.45 0L5.47 0L5.47-3.32L1.72-3.32L1.72 0L0.74 0L0.74-7.15L1.72-7.15L1.72-4.22ZM12.66 0L11.95-2.07L9.06-2.07L8.32 0L7.34 0L10.04-7.15L11.13-7.15L13.71 0L12.66 0ZM10.51-6.09L9.38-2.93L11.60-2.93L10.55-6.09L10.51-6.09ZM15.74-7.15L19.34-1.37L19.34-7.15L20.27-7.15L20.27 0L19.18 0L15.55-5.78L15.51-5.78L15.51 0L14.57 0L14.57-7.15L15.74-7.15ZM27.11-3.01L24.92-3.01L24.92-3.83L28.05-3.83L28.05 0L27.42 0L27.19-0.90Q26.37 0.08 24.84 0.12L24.84 0.12Q23.40 0.12 22.62-0.63L22.62-0.63Q21.45-1.72 21.48-3.63L21.48-3.63Q21.76-7.19 24.88-7.34L24.88-7.34Q27.54-7.19 27.93-5L27.93-5L26.99-5Q26.60-6.48 24.84-6.52L24.84-6.52Q22.62-6.37 22.50-3.59L22.50-3.59Q22.50-0.63 24.88-0.63L24.88-0.63Q25.74-0.63 26.37-1.09L26.37-1.09Q27.15-1.72 27.11-3.01L27.11-3.01ZM30.23-0.86L34.65-0.86L34.65 0L29.02 0L29.02-0.78L33.40-6.33L29.34-6.33L29.34-7.15L34.65-7.15L34.65-6.33L30.23-0.86ZM36.56-4.22L40.31-4.22L40.31-7.15L41.29-7.15L41.29 0L40.31 0L40.31-3.32L36.56-3.32L36.56 0L35.59 0L35.59-7.15L36.56-7.15L36.56-4.22ZM48.44-3.55L48.44-3.55Q48.28-6.37 45.94-6.52L45.94-6.52Q43.55-6.41 43.44-3.55L43.44-3.55Q43.55-0.78 45.94-0.66L45.94-0.66Q48.28-0.82 48.44-3.55ZM49.41-3.55L49.41-3.55Q49.18 0 45.94 0.12L45.94 0.12Q42.66 0 42.42-3.55L42.42-3.55Q42.62-7.27 45.94-7.34L45.94-7.34Q49.18-7.23 49.41-3.55ZM55.27-2.66L55.27-7.15L56.25-7.15L56.25-2.54Q56.13 0.04 53.32 0.12L53.32 0.12Q50.70 0.04 50.59-2.38L50.59-2.38L50.59-7.15L51.56-7.15L51.56-2.66Q51.60-0.70 53.36-0.66L53.36-0.66Q55.27-0.70 55.27-2.66L55.27-2.66ZM60.51-7.15L61.48-7.15L61.48-0.86L65.12-0.86L65.12 0L60.51 0L60.51-7.15ZM66.21-7.15L67.19-7.15L67.19 0L66.21 0L66.21-7.15ZM68.83-7.15L69.80-7.15L69.80-0.86L73.44-0.86L73.44 0L68.83 0L68.83-7.15ZM74.53-7.15L75.51-7.15L75.51 0L74.53 0L74.53-7.15Z" transform="translate(-0.7421875, 7.34375)"></path></g></g></g></g></g></g><mask id="d2dcefb2-98ce-4bab-a5f9-d309b21211a5"><g fill="white"><g><rect fill-opacity="1" stroke-width="2" x="0" y="0" width="182.5" height="20.396781667260875" class="image-rect"></rect> <svg x="0" y="0" width="182.5" height="20.396781667260875" class="image-svg-svg primary" style="overflow: visible;" filter="url(#colorsf3493982263)"><svg xmlns="http://www.w3.org/2000/svg" viewBox="0 -0.00013400218449532986 334.19000244140625 37.350135803222656"><g><path d="M334.19 22.08v10.45h-2.73c-45.86.08-91.72.26-137.58.09-5.12 0-10.25-1.91-15.33-3.11-26-6.14-52-12.37-78.08-18.48a10.61 10.61 0 0 0-5.07.14Q49 23.88 2.62 36.72c-.79.22-1.6.38-2.62.63V26.41c4.72-1.3 9.58-2.65 14.45-4Q55.22 11.33 96 .27A8.25 8.25 0 0 1 99.9.2q45.1 10.68 90.19 21.44a20.51 20.51 0 0 0 4.7.42h136.08z"></path></g></svg></svg> <defs>  </defs></g></g> <g transform="translate(-3.9249954223632812,27.466514587402344)"><rect fill="black" fill-opacity="1" x="-3.5" y="-3.5" width="189.34999084472656" height="43.000003814697266"></rect><rect fill="black" fill-opacity="1" x="-3.5" y="-3.5" transform="translate(51.7878058552742,46.000003814697266)" width="81.77000427246094" height="14.46000051498413"></rect></g><g transform="translate(-3.9249954223632812,27.466514587402344)" fill="black"><g data-gra="path-name" fill-rule="" class="tp-name" transform="translate(0,0)"><g transform="scale(1)"><g><path d="M42.2 0.4L31.25 0.4 34-18.9 29.9-18.9 25.3 0.4 17.4 0.4 22.85-23.55 42.05-23.55 39.5-5.4 41.25-5.4 43.3-7.3 42.2 0.4ZM5.25 0.45L8.8-24.55 4-24.55 4.65-29.3 9.45-29.3 10.15-34.1 8.95-35.55 17.65-35.55 16.75-29.3 21-29.3 20.35-24.55 16.1-24.55 12.55 0.45 5.25 0.45ZM22.45-31.3L29.8-31.3 30.15-33.6 28.55-35.5 39.35-35.5 38.7-31.3 45.2-31.3 44.5-26.45 21.75-26.45 22.45-31.3ZM4.2-0.55L0.8-0.55 4.6-23.25 8.05-23.25 4.2-0.55ZM18.1-4.2L14.65-4.2 16.4-23.25 19.8-23.25 18.1-4.2ZM55.3-35.5L65.35-35.5 56.1 0.4 48.1 0.4 57.1-33.75 55.3-35.5ZM82-35.5L91-35.5 85.9 0.4 78.8 0.4 83.6-33.6 82-35.5ZM68.55-33.7L77.75-33.7 73.25-1.35 65.7-1.35 69.95-31.75 68.55-33.7ZM67.95-27L66.1-13.3 61.95-13.3 63.8-27 67.95-27ZM81.35-27L80-13.3 75.9-13.3 77.35-27 81.35-27ZM47-13.25L50.6-27 54.5-27 51-13.25 47-13.25ZM122.35-35.55L118.25-27.95 136.45-27.95 132.95-2.85Q132.7-1.4 131.57-0.48 130.45 0.45 129.05 0.45L129.05 0.45 119.15 0.45 123.65-4.2 126.3-23.2 115.7-23.2 103 0.45 93.5 0.45 106.2-23.2 95.9-23.2 96.55-27.95 108.75-27.95 112.1-34.2 110.95-35.55 122.35-35.55ZM155.35-12.6L163.45-12.6 163.75-14.7 155.7-14.7 158.5-34.65 183.15-34.65 180.35-14.7 172.25-14.7 171.95-12.6 180-12.6 179.35-7.85 171.25-7.85 170.9-5.2 180-5.2 179.35-0.45 152.7-0.45 153.35-5.2 162.4-5.2 162.75-7.85 154.7-7.85 155.35-12.6ZM142.3-33.65L156.4-33.65 151.75-0.6 138.85-0.6 143.35-32.45 142.3-33.65ZM145-4.85L146.8-4.85 150.25-29.4 148.45-29.4 145-4.85ZM162.35-19.45L165-19.45 165.4-22.3 162.75-22.3 162.35-19.45ZM163.85-29.9L163.4-27.05 166.1-27.05 166.5-29.9 163.85-29.9ZM176.5-29.9L173.85-29.9 173.45-27.05 176.1-27.05 176.5-29.9ZM172.35-19.45L175-19.45 175.4-22.3 172.75-22.3 172.35-19.45Z" transform="translate(-0.800000011920929, 35.54999923706055)"></path></g>       </g></g> <g data-gra="path-slogan" fill-rule="" class="tp-slogan" transform="translate(51.78999328613281,46.000003814697266)">  <g transform="scale(1, 1)"><g transform="scale(1)"><path d="M1.72-4.22L5.47-4.22L5.47-7.15L6.45-7.15L6.45 0L5.47 0L5.47-3.32L1.72-3.32L1.72 0L0.74 0L0.74-7.15L1.72-7.15L1.72-4.22ZM12.66 0L11.95-2.07L9.06-2.07L8.32 0L7.34 0L10.04-7.15L11.13-7.15L13.71 0L12.66 0ZM10.51-6.09L9.38-2.93L11.60-2.93L10.55-6.09L10.51-6.09ZM15.74-7.15L19.34-1.37L19.34-7.15L20.27-7.15L20.27 0L19.18 0L15.55-5.78L15.51-5.78L15.51 0L14.57 0L14.57-7.15L15.74-7.15ZM27.11-3.01L24.92-3.01L24.92-3.83L28.05-3.83L28.05 0L27.42 0L27.19-0.90Q26.37 0.08 24.84 0.12L24.84 0.12Q23.40 0.12 22.62-0.63L22.62-0.63Q21.45-1.72 21.48-3.63L21.48-3.63Q21.76-7.19 24.88-7.34L24.88-7.34Q27.54-7.19 27.93-5L27.93-5L26.99-5Q26.60-6.48 24.84-6.52L24.84-6.52Q22.62-6.37 22.50-3.59L22.50-3.59Q22.50-0.63 24.88-0.63L24.88-0.63Q25.74-0.63 26.37-1.09L26.37-1.09Q27.15-1.72 27.11-3.01L27.11-3.01ZM30.23-0.86L34.65-0.86L34.65 0L29.02 0L29.02-0.78L33.40-6.33L29.34-6.33L29.34-7.15L34.65-7.15L34.65-6.33L30.23-0.86ZM36.56-4.22L40.31-4.22L40.31-7.15L41.29-7.15L41.29 0L40.31 0L40.31-3.32L36.56-3.32L36.56 0L35.59 0L35.59-7.15L36.56-7.15L36.56-4.22ZM48.44-3.55L48.44-3.55Q48.28-6.37 45.94-6.52L45.94-6.52Q43.55-6.41 43.44-3.55L43.44-3.55Q43.55-0.78 45.94-0.66L45.94-0.66Q48.28-0.82 48.44-3.55ZM49.41-3.55L49.41-3.55Q49.18 0 45.94 0.12L45.94 0.12Q42.66 0 42.42-3.55L42.42-3.55Q42.62-7.27 45.94-7.34L45.94-7.34Q49.18-7.23 49.41-3.55ZM55.27-2.66L55.27-7.15L56.25-7.15L56.25-2.54Q56.13 0.04 53.32 0.12L53.32 0.12Q50.70 0.04 50.59-2.38L50.59-2.38L50.59-7.15L51.56-7.15L51.56-2.66Q51.60-0.70 53.36-0.66L53.36-0.66Q55.27-0.70 55.27-2.66L55.27-2.66ZM60.51-7.15L61.48-7.15L61.48-0.86L65.12-0.86L65.12 0L60.51 0L60.51-7.15ZM66.21-7.15L67.19-7.15L67.19 0L66.21 0L66.21-7.15ZM68.83-7.15L69.80-7.15L69.80-0.86L73.44-0.86L73.44 0L68.83 0L68.83-7.15ZM74.53-7.15L75.51-7.15L75.51 0L74.53 0L74.53-7.15Z" transform="translate(-0.7421875, 7.34375)"></path></g></g></g></g></mask><defs v-gra="od"><linearGradient x1="0" y1="1" x2="0" y2="0" id="9ff30b6a-15ec-435a-b2e6-9ca89db6f62f"><stop offset="0%" stop-color="#ff5857"></stop><stop offset="100%" stop-color="#f09819"></stop></linearGradient><filter id="42443b3f1de60f6b6fd3b6a9844b4764" filterUnits="objectBoundingBox"><feColorMatrix type="matrix" values="0 0 0 0 0.99609375  0 0 0 0 0.99609375  0 0 0 0 0.99609375  0 0 0 1 0"></feColorMatrix></filter></defs></svg>